<mxfile host="Electron" modified="2023-11-15T06:46:54.042Z" agent="Mozilla/5.0 (Windows NT 10.0; Win64; x64) AppleWebKit/537.36 (KHTML, like Gecko) draw.io/22.0.2 Chrome/114.0.5735.289 Electron/25.8.4 Safari/537.36" etag="8OIlx_j4EG2ESsCeAxa9" version="22.0.2" type="device">
  <diagram name="Page-1" id="sUimIksm4jiYAaoKXcIq">
    <mxGraphModel dx="1036" dy="606" grid="1" gridSize="10" guides="1" tooltips="1" connect="1" arrows="1" fold="1" page="1" pageScale="1" pageWidth="850" pageHeight="1100" math="0" shadow="0">
      <root>
        <mxCell id="0" />
        <mxCell id="1" parent="0" />
        <mxCell id="tG5Y7HTwGCrwfzks1xHE-9" style="edgeStyle=orthogonalEdgeStyle;rounded=0;orthogonalLoop=1;jettySize=auto;html=1;entryX=0;entryY=0.5;entryDx=0;entryDy=0;" edge="1" parent="1" source="tG5Y7HTwGCrwfzks1xHE-1" target="tG5Y7HTwGCrwfzks1xHE-3">
          <mxGeometry relative="1" as="geometry" />
        </mxCell>
        <mxCell id="tG5Y7HTwGCrwfzks1xHE-1" value="(shared?)&lt;br&gt;Mem" style="rounded=0;whiteSpace=wrap;html=1;" vertex="1" parent="1">
          <mxGeometry x="120" y="200" width="120" height="201" as="geometry" />
        </mxCell>
        <mxCell id="tG5Y7HTwGCrwfzks1xHE-6" style="edgeStyle=orthogonalEdgeStyle;rounded=0;orthogonalLoop=1;jettySize=auto;html=1;exitX=0;exitY=0.5;exitDx=0;exitDy=0;entryX=1;entryY=0.25;entryDx=0;entryDy=0;" edge="1" parent="1" source="tG5Y7HTwGCrwfzks1xHE-2" target="tG5Y7HTwGCrwfzks1xHE-1">
          <mxGeometry relative="1" as="geometry" />
        </mxCell>
        <mxCell id="tG5Y7HTwGCrwfzks1xHE-2" value="Fetch" style="rounded=0;whiteSpace=wrap;html=1;" vertex="1" parent="1">
          <mxGeometry x="280" y="200" width="120" height="60" as="geometry" />
        </mxCell>
        <mxCell id="tG5Y7HTwGCrwfzks1xHE-16" style="edgeStyle=orthogonalEdgeStyle;rounded=0;orthogonalLoop=1;jettySize=auto;html=1;exitX=1;exitY=0.5;exitDx=0;exitDy=0;entryX=0;entryY=0.75;entryDx=0;entryDy=0;" edge="1" parent="1" source="tG5Y7HTwGCrwfzks1xHE-3" target="tG5Y7HTwGCrwfzks1xHE-12">
          <mxGeometry relative="1" as="geometry" />
        </mxCell>
        <mxCell id="tG5Y7HTwGCrwfzks1xHE-3" value="Decode" style="rounded=0;whiteSpace=wrap;html=1;" vertex="1" parent="1">
          <mxGeometry x="280" y="271" width="120" height="60" as="geometry" />
        </mxCell>
        <mxCell id="tG5Y7HTwGCrwfzks1xHE-8" style="edgeStyle=orthogonalEdgeStyle;rounded=0;orthogonalLoop=1;jettySize=auto;html=1;entryX=1;entryY=0.75;entryDx=0;entryDy=0;" edge="1" parent="1" source="tG5Y7HTwGCrwfzks1xHE-4" target="tG5Y7HTwGCrwfzks1xHE-1">
          <mxGeometry relative="1" as="geometry" />
        </mxCell>
        <mxCell id="tG5Y7HTwGCrwfzks1xHE-4" value="writeBack?" style="rounded=0;whiteSpace=wrap;html=1;" vertex="1" parent="1">
          <mxGeometry x="280" y="341" width="120" height="60" as="geometry" />
        </mxCell>
        <mxCell id="tG5Y7HTwGCrwfzks1xHE-18" style="edgeStyle=orthogonalEdgeStyle;rounded=0;orthogonalLoop=1;jettySize=auto;html=1;exitX=0.5;exitY=0;exitDx=0;exitDy=0;" edge="1" parent="1" source="tG5Y7HTwGCrwfzks1xHE-10" target="tG5Y7HTwGCrwfzks1xHE-12">
          <mxGeometry relative="1" as="geometry" />
        </mxCell>
        <mxCell id="tG5Y7HTwGCrwfzks1xHE-10" value="Reg Files" style="rounded=0;whiteSpace=wrap;html=1;" vertex="1" parent="1">
          <mxGeometry x="440" y="271" width="120" height="59" as="geometry" />
        </mxCell>
        <mxCell id="tG5Y7HTwGCrwfzks1xHE-11" value="ALU&lt;br&gt;(Tree?)" style="rounded=0;whiteSpace=wrap;html=1;" vertex="1" parent="1">
          <mxGeometry x="600" y="270.5" width="120" height="60" as="geometry" />
        </mxCell>
        <mxCell id="tG5Y7HTwGCrwfzks1xHE-17" style="edgeStyle=orthogonalEdgeStyle;rounded=0;orthogonalLoop=1;jettySize=auto;html=1;exitX=0;exitY=0.25;exitDx=0;exitDy=0;entryX=1;entryY=0.25;entryDx=0;entryDy=0;" edge="1" parent="1" source="tG5Y7HTwGCrwfzks1xHE-12" target="tG5Y7HTwGCrwfzks1xHE-2">
          <mxGeometry relative="1" as="geometry" />
        </mxCell>
        <mxCell id="tG5Y7HTwGCrwfzks1xHE-12" value="Branch predictor" style="rounded=0;whiteSpace=wrap;html=1;" vertex="1" parent="1">
          <mxGeometry x="440" y="200" width="120" height="60" as="geometry" />
        </mxCell>
        <mxCell id="tG5Y7HTwGCrwfzks1xHE-14" value="Matrix" style="rounded=0;whiteSpace=wrap;html=1;" vertex="1" parent="1">
          <mxGeometry x="440" y="341" width="120" height="60" as="geometry" />
        </mxCell>
        <mxCell id="tG5Y7HTwGCrwfzks1xHE-15" value="ALU with real time processing or direct processing" style="rounded=0;whiteSpace=wrap;html=1;" vertex="1" parent="1">
          <mxGeometry x="600" y="341" width="120" height="60" as="geometry" />
        </mxCell>
      </root>
    </mxGraphModel>
  </diagram>
</mxfile>
